# xmcd CD database file
#
# Track frame offsets:
#	150
#	18087
#	26547
#	41535
#	52317
#	59572
#	79805
#	87610
#	102927
#	125730
#	154810
#	163017
#	168315
#	178570
#	187655
#	205917
#	232280
#	246030
#	255805
#	272717
#	288502
#	292375
#	304900
#	313682
#
# Disc length: 4400 seconds
#
# Revision: 0
# Processed by: cddbd v1.5.1PL0 Copyright (c) Steve Scherf et al.
# Submitted via: CDex 1.51
#
DISCID=5e112e18
DTITLE=宝塚歌劇団 - すみれの花咲く頃７「夜明けの序曲」
DYEAR=1900
DGENRE=Musical
TTITLE0=夜明けの序曲-旅立ち〜「オッペケ節」
TTITLE1=夜明けの序曲-「夜明けの序曲」
TTITLE2=夜明けの序曲-モルガンお雪
TTITLE3=夜明けの序曲-決意
TTITLE4=夜明けの序曲-晩秋の有馬
TTITLE5=夜明けの序曲-帝国座の舞台〜「夜明けの序曲」
TTITLE6=大江山花伝-プロローグ-「うす紫の恋」
TTITLE7=大江山花伝-茨木、取返す
TTITLE8=大江山花伝-2人、誓う
TTITLE9=大江山花伝-茨木と藤子、果てる
TTITLE10=大江山花伝-2人、翔ける
TTITLE11=川霧の橋-大火の中で〜杉田屋
TTITLE12=川霧の橋-柳河岸の約束
TTITLE13=川霧の橋-幸次郎傷心
TTITLE14=川霧の橋-火事
TTITLE15=川霧の橋-柳橋
TTITLE16=川霧の橋-「川霧の橋」
TTITLE17=雪之丞変化-「大江戸花歌舞伎」
TTITLE18=雪之丞変化-江戸市村座
TTITLE19=雪之丞変化-宿下り
TTITLE20=雪之丞変化-夜風の中で
TTITLE21=雪之丞変化-浪路の死
TTITLE22=雪之丞変化-「薄紫の影」
TTITLE23=別れ-エピローグ
EXTD=
EXTT0=
EXTT1=
EXTT2=
EXTT3=
EXTT4=
EXTT5=
EXTT6=
EXTT7=
EXTT8=
EXTT9=
EXTT10=
EXTT11=
EXTT12=
EXTT13=
EXTT14=
EXTT15=
EXTT16=
EXTT17=
EXTT18=
EXTT19=
EXTT20=
EXTT21=
EXTT22=
EXTT23=
PLAYORDER=
